# xmcd
#
# Track frame offsets:
#	150
#	13315
#	26305
#	37290
#	47762
#	59362
#	72790
#	84570
#	95255
#	107550
#	121227
#	132445
#	148525
#	173262
#	183355
#	193707
#	206652
#	217777
#	227040
#	237462
#	249567
#	264337
#	275917
#	287115
#	299875
#	311712
#	324310
#	334292
#
# Disc length: 4609 seconds
#
# Revision: 3
# Processed by: cddbd v1.5.1PL0 Copyright (c) Steve Scherf et al.
# Submitted via: EasyCDDAExtractor 5.0.6
#
DISCID=ac11ff1c
DTITLE=Maxine Brown - Oh No Not My Baby (kent)
DYEAR=1990
DGENRE=Blues
TTITLE0=Since I Found You
TTITLE1=Gotta Find A Way
TTITLE2=I Wonder What My Baby's Doing Tonight
TTITLE3=Let Me Give You My Lovin'
TTITLE4=It's Torture
TTITLE5=One In A Million
TTITLE6=Oh No Not My Baby
TTITLE7=You're In Love
TTITLE8=Anything For A Laugh
TTITLE9=Coming Back To You
TTITLE10=Yesterday's Kisses
TTITLE11=Ask Me
TTITLE12=All In My Mind
TTITLE13=Little Girl Lost
TTITLE14=I Want A Guarantee
TTITLE15=Secret Of Livin'
TTITLE16=Baby Cakes
TTITLE17=One Step At A Time
TTITLE18=I've Got A Lot Of Love Left In Me
TTITLE19=I Don't Need Anything
TTITLE20=Oh Lord What Are You Doing To Me
TTITLE21=I Cry Alone
TTITLE22=Funny
TTITLE23=Misty Morning Eyes
TTITLE24=Love That Man
TTITLE25=Losing My Touch
TTITLE26=Put Yourself In My Place
TTITLE27=It's Gonna Be All Right
EXTD=
EXTT0=
EXTT1=
EXTT2=
EXTT3=
EXTT4=
EXTT5=
EXTT6=
EXTT7=
EXTT8=
EXTT9=
EXTT10=
EXTT11=
EXTT12=
EXTT13=
EXTT14=
EXTT15=
EXTT16=
EXTT17=
EXTT18=
EXTT19=
EXTT20=
EXTT21=
EXTT22=
EXTT23=
EXTT24=
EXTT25=
EXTT26=
EXTT27=
PLAYORDER=
